<svg id="SvgjsSvg1001" width="100%" height="100%" xmlns="http://www.w3.org/2000/svg" version="1.1" xlink="http://www.w3.org/1999/xlink" xmlns:svgjs="http://svgjs.com/svgjs" preserveAspectRatio="xMidYMid meet" viewBox="0 0 300.0000305175781 46.19122314453125" overflow="visible"><defs id="SvgjsDefs1002"></defs><g id="SvgjsG1008" transform="scale(0.8098040274253631)" opacity="1"><g id="SvgjsG1009" class="PTTX2ZrFkN" transform="translate(0, 0) scale(1)" light-content="false" fill="#31e36f"><path d="M0 0 h 182.2 v 57.04 h -182.2 Z"></path></g><g id="SvgjsG1010" class="text" transform="translate(90.62999725341797, 49.56999969482422) scale(1)" light-content="true" fill="#ffffff"><path d="M-82.92 0L-73.9 0C-72.71 0 -71.69 -0.06 -70.84 -0.19C-69.99 -0.32 -69.15 -0.57 -68.31 -0.94C-67.47 -1.31 -66.76 -1.82 -66.2 -2.48C-65.63 -3.13 -65.1 -3.98 -64.6 -5.02C-64.1 -6.07 -63.71 -7.34 -63.43 -8.85C-63.14 -10.35 -62.92 -12.13 -62.77 -14.18C-62.61 -16.23 -62.53 -18.59 -62.53 -21.27C-62.53 -24.47 -62.7 -27.27 -63.02 -29.66C-63.34 -32.06 -63.8 -34.04 -64.39 -35.61C-64.99 -37.18 -65.74 -38.46 -66.65 -39.43C-67.56 -40.41 -68.55 -41.1 -69.64 -41.51C-70.72 -41.92 -71.97 -42.13 -73.37 -42.13L-82.92 -42.13C-83.16 -42.13 -83.33 -42.06 -83.45 -41.92C-83.57 -41.79 -83.63 -41.5 -83.63 -41.07L-83.63 -1.23C-83.63 -0.72 -83.57 -0.39 -83.45 -0.23C-83.33 -0.08 -83.16 0 -82.92 0ZM-78.56 -3.75C-78.79 -3.75 -78.91 -3.96 -78.91 -4.39L-78.91 -37.79C-78.91 -38.18 -78.8 -38.38 -78.59 -38.38L-73.93 -38.38C-72.35 -38.38 -71.08 -37.84 -70.12 -36.77C-69.17 -35.69 -68.44 -33.9 -67.95 -31.38C-67.47 -28.86 -67.22 -25.48 -67.22 -21.24C-67.22 -16.55 -67.44 -12.97 -67.87 -10.49C-68.3 -8.01 -68.99 -6.26 -69.95 -5.26C-70.9 -4.25 -72.28 -3.75 -74.08 -3.75Z M-51.72 -23.41C-51.9 -23.41 -51.99 -23.62 -51.99 -24.05L-51.99 -37.88C-51.99 -38.21 -51.9 -38.38 -51.72 -38.38L-48.24 -38.38C-47.03 -38.38 -46.02 -38.28 -45.22 -38.07C-44.42 -37.87 -43.71 -37.5 -43.1 -36.97C-42.48 -36.45 -42.03 -35.7 -41.75 -34.73C-41.46 -33.76 -41.32 -32.55 -41.32 -31.08C-41.32 -28.45 -41.8 -26.51 -42.76 -25.27C-43.72 -24.03 -45.25 -23.41 -47.36 -23.41ZM-56 0L-52.72 0C-52.47 0 -52.28 -0.08 -52.16 -0.25C-52.05 -0.42 -51.99 -0.76 -51.99 -1.29L-51.99 -19.16C-51.99 -19.53 -51.89 -19.72 -51.69 -19.72L-46.39 -19.72C-43.31 -19.72 -41.69 -18.12 -41.56 -14.91C-41.46 -14.48 -41.38 -12.17 -41.31 -7.97C-41.24 -3.77 -41.2 -1.58 -41.18 -1.41C-41.18 -0.45 -40.99 0.03 -40.62 0.03C-40.58 0.03 -39.43 0.02 -37.16 0C-36.77 0 -36.58 -0.51 -36.58 -1.52C-36.58 -7.91 -36.6 -11.63 -36.64 -12.69C-36.67 -13.97 -36.8 -15.11 -37 -16.08C-37.21 -17.06 -37.44 -17.84 -37.69 -18.41C-37.94 -18.99 -38.3 -19.51 -38.76 -19.98C-39.22 -20.45 -39.62 -20.79 -39.96 -20.99C-40.3 -21.2 -40.77 -21.44 -41.35 -21.71C-41.41 -21.71 -41.44 -21.75 -41.44 -21.83C-41.44 -21.88 -41.4 -21.95 -41.32 -22.03C-40.33 -22.44 -39.51 -22.95 -38.86 -23.57C-38.22 -24.18 -37.68 -25.14 -37.25 -26.43C-36.82 -27.71 -36.61 -29.32 -36.61 -31.23C-36.61 -32.62 -36.7 -33.86 -36.9 -34.95C-37.09 -36.04 -37.35 -36.97 -37.68 -37.73C-38 -38.5 -38.42 -39.15 -38.95 -39.68C-39.48 -40.22 -40.01 -40.64 -40.56 -40.96C-41.11 -41.27 -41.77 -41.52 -42.54 -41.7C-43.31 -41.89 -44.03 -42.01 -44.71 -42.06C-45.38 -42.1 -46.18 -42.13 -47.09 -42.13L-56 -42.13C-56.16 -42.13 -56.28 -42.1 -56.37 -42.06C-56.46 -42.01 -56.53 -41.88 -56.6 -41.67C-56.67 -41.47 -56.7 -41.17 -56.7 -40.78L-56.7 -1.29C-56.7 -0.76 -56.65 -0.42 -56.53 -0.25C-56.41 -0.08 -56.24 0 -56 0Z M-25.33 -12.77C-25.58 -12.77 -25.71 -12.92 -25.71 -13.21C-25.71 -13.31 -25.7 -13.4 -25.68 -13.48L-21.96 -36.71C-21.96 -36.81 -21.93 -36.86 -21.87 -36.86L-21.81 -36.68L-18.41 -13.39C-18.37 -13.37 -18.35 -13.3 -18.35 -13.18C-18.35 -12.91 -18.4 -12.77 -18.5 -12.77ZM-31.54 0L-28.7 0C-28.46 0 -28.28 -0.09 -28.14 -0.26C-28 -0.44 -27.89 -0.79 -27.79 -1.32L-26.44 -9.17C-26.36 -9.52 -26.28 -9.7 -26.21 -9.7L-18.18 -9.7C-18.08 -9.7 -17.99 -9.53 -17.92 -9.2L-16.71 -1.32C-16.58 -0.44 -16.25 0 -15.72 0L-12.08 0C-11.77 0 -11.62 -0.28 -11.62 -0.85C-11.62 -0.95 -11.64 -1.1 -11.69 -1.3C-11.74 -1.51 -11.76 -1.66 -11.76 -1.76L-18.41 -40.61C-18.59 -41.62 -18.94 -42.13 -19.47 -42.13L-24.01 -42.13C-24.52 -42.13 -24.87 -41.62 -25.06 -40.61L-31.95 -1.76C-31.97 -1.64 -31.98 -1.48 -31.98 -1.29L-31.98 -0.88C-31.98 -0.29 -31.83 0 -31.54 0Z M-2.77 0L-0.22 0C0.19 -0.08 0.49 -0.74 0.69 -1.99L5.61 -32.29L10.77 -2.02C10.98 -0.73 11.34 -0.06 11.85 0L14.66 0C15.15 -0.06 15.48 -0.72 15.66 -1.99L20.87 -40.14C20.93 -40.45 20.96 -40.74 20.96 -41.02C20.96 -41.76 20.82 -42.13 20.52 -42.13L17.92 -42.13C17.45 -42.13 17.11 -41.46 16.92 -40.14L13.23 -11.34L8.31 -39.93C8.09 -41.08 7.73 -41.68 7.22 -41.72L4.58 -41.72C4.06 -41.72 3.7 -41.13 3.5 -39.96L-1.04 -12.07L-4.82 -40.11C-5.01 -41.46 -5.37 -42.13 -5.87 -42.13L-8.83 -42.13C-9.15 -42.13 -9.3 -41.76 -9.3 -41.02C-9.3 -40.74 -9.27 -40.45 -9.21 -40.14L-3.76 -1.99C-3.59 -0.74 -3.26 -0.08 -2.77 0Z M26.56 0L29.84 0C30.09 0 30.28 -0.08 30.4 -0.25C30.51 -0.42 30.57 -0.79 30.57 -1.38L30.57 -40.75C30.57 -41.34 30.51 -41.71 30.4 -41.88C30.28 -42.05 30.09 -42.13 29.84 -42.13L26.56 -42.13C26.32 -42.13 26.15 -42.04 26.03 -41.87C25.91 -41.69 25.85 -41.32 25.85 -40.75L25.85 -1.38C25.85 -0.99 25.89 -0.68 25.96 -0.47C26.03 -0.25 26.1 -0.12 26.19 -0.07C26.28 -0.02 26.4 0 26.56 0Z M37.84 0L40.53 0C40.79 0 40.98 -0.11 41.1 -0.32C41.23 -0.54 41.29 -0.94 41.29 -1.52L41.29 -31.29C41.29 -31.35 41.3 -31.41 41.32 -31.46C41.4 -31.66 41.46 -31.7 41.5 -31.58L53.6 -1.23C53.72 -0.92 53.89 -0.63 54.13 -0.38C54.36 -0.13 54.56 0 54.71 0L57.08 0C57.24 0 57.36 -0.02 57.45 -0.07C57.54 -0.12 57.62 -0.25 57.69 -0.45C57.75 -0.66 57.79 -0.96 57.79 -1.35L57.79 -40.63C57.79 -41.63 57.55 -42.13 57.08 -42.13L54.42 -42.13C54.17 -42.13 53.97 -42.03 53.85 -41.82C53.72 -41.62 53.66 -41.22 53.66 -40.63L53.66 -12.16C53.66 -12.08 53.64 -12 53.6 -11.92C53.54 -11.75 53.49 -11.7 53.45 -11.78L42 -41.16C41.74 -41.81 41.44 -42.13 41.09 -42.13L37.84 -42.13C37.58 -42.13 37.4 -42.03 37.28 -41.82C37.16 -41.62 37.1 -41.22 37.1 -40.63L37.1 -1.52C37.1 -0.51 37.35 0 37.84 0Z M83.72 0.47C83.95 0.47 84.15 0.31 84.32 0C84.48 -0.31 84.57 -0.76 84.57 -1.35L84.57 -20.27C84.57 -21.31 84.31 -21.83 83.8 -21.83L75.95 -21.83C75.68 -21.83 75.47 -21.75 75.34 -21.61C75.2 -21.46 75.13 -21.14 75.13 -20.65L75.13 -18.9C75.13 -18.56 75.18 -18.31 75.26 -18.12C75.35 -17.93 75.45 -17.82 75.56 -17.78C75.66 -17.74 75.82 -17.72 76.01 -17.72L80.11 -17.72C80.29 -17.72 80.38 -17.19 80.38 -16.11C80.38 -14.1 80.31 -12.39 80.19 -10.97C80.06 -9.56 79.82 -8.24 79.47 -7.02C79.12 -5.8 78.61 -4.88 77.94 -4.28C77.28 -3.67 76.44 -3.37 75.42 -3.37C74.62 -3.37 73.91 -3.5 73.27 -3.75C72.64 -4 72.01 -4.51 71.38 -5.27C70.76 -6.04 70.24 -7.05 69.83 -8.32C69.42 -9.59 69.09 -11.3 68.83 -13.46C68.58 -15.62 68.45 -18.16 68.45 -21.09C68.45 -24.18 68.62 -26.83 68.95 -29.03C69.28 -31.24 69.7 -32.96 70.21 -34.19C70.72 -35.42 71.38 -36.39 72.2 -37.09C73.02 -37.79 73.81 -38.24 74.56 -38.42C75.31 -38.61 76.23 -38.7 77.3 -38.7C77.69 -38.7 78.12 -38.67 78.57 -38.61C79.03 -38.55 79.45 -38.49 79.83 -38.42C80.21 -38.35 80.57 -38.28 80.89 -38.2C81.21 -38.13 81.48 -38.06 81.69 -38L81.99 -37.91C82.12 -37.91 82.19 -38.03 82.19 -38.26L82.19 -41.13C82.19 -41.25 82.17 -41.34 82.13 -41.4C82.09 -41.46 82.04 -41.51 81.97 -41.56C81.9 -41.61 81.86 -41.64 81.84 -41.66C80.36 -42.27 78.75 -42.57 77.01 -42.57C75.93 -42.57 75 -42.52 74.22 -42.44C73.44 -42.35 72.56 -42.14 71.57 -41.81C70.59 -41.47 69.75 -41.02 69.05 -40.43C68.36 -39.84 67.66 -39.01 66.94 -37.94C66.23 -36.87 65.65 -35.59 65.21 -34.1C64.78 -32.62 64.42 -30.78 64.15 -28.58C63.87 -26.38 63.74 -23.89 63.74 -21.09C63.74 -18.42 63.85 -16.01 64.09 -13.86C64.32 -11.71 64.63 -9.9 65.01 -8.42C65.39 -6.95 65.87 -5.66 66.46 -4.57C67.05 -3.48 67.65 -2.62 68.26 -1.99C68.88 -1.37 69.58 -0.87 70.39 -0.5C71.19 -0.13 71.94 0.12 72.64 0.23C73.34 0.35 74.13 0.41 74.99 0.41C76.74 0.41 78.19 -0.19 79.34 -1.38C80.48 -2.57 81.22 -4.26 81.55 -6.45C81.59 -6.6 81.65 -6.68 81.72 -6.68C81.78 -6.68 81.81 -6.59 81.81 -6.42C81.81 -6.08 81.91 -5.16 82.12 -3.65C82.32 -2.13 82.43 -1.34 82.43 -1.26C82.64 -0.11 83.07 0.47 83.72 0.47Z"></path></g><g id="SvgjsG1011" class="text" transform="translate(280.90999908447264, 49.56999969482422) scale(1)" light-content="false" fill="#128339"><path d="M-84.83 0L-81.52 0C-81.26 0 -81.08 -0.08 -80.98 -0.25C-80.87 -0.42 -80.82 -0.79 -80.82 -1.38L-80.82 -37.53C-80.82 -38.02 -80.71 -38.26 -80.49 -38.26L-75.4 -38.26C-75.22 -38.26 -75.09 -38.28 -75.01 -38.31C-74.94 -38.33 -74.86 -38.43 -74.79 -38.58C-74.73 -38.74 -74.69 -38.97 -74.69 -39.29L-74.69 -40.93C-74.69 -41.44 -74.75 -41.76 -74.85 -41.91C-74.96 -42.06 -75.14 -42.13 -75.4 -42.13L-90.98 -42.13C-91.25 -42.13 -91.45 -42.06 -91.55 -41.91C-91.66 -41.76 -91.71 -41.44 -91.71 -40.93L-91.71 -39.29C-91.71 -38.97 -91.68 -38.74 -91.61 -38.58C-91.54 -38.43 -91.47 -38.33 -91.39 -38.31C-91.31 -38.28 -91.18 -38.26 -90.98 -38.26L-85.85 -38.26C-85.64 -38.26 -85.53 -38.02 -85.53 -37.53L-85.53 -1.38C-85.53 -0.79 -85.48 -0.42 -85.37 -0.25C-85.26 -0.08 -85.08 0 -84.83 0Z M-60.81 0.41C-59.2 0.41 -57.85 0.23 -56.75 -0.13C-55.64 -0.49 -54.65 -1.13 -53.77 -2.04C-52.9 -2.94 -52.2 -4.22 -51.69 -5.87C-51.19 -7.52 -50.81 -9.6 -50.55 -12.1C-50.3 -14.6 -50.17 -17.65 -50.17 -21.24C-50.17 -25.52 -50.37 -29.03 -50.76 -31.79C-51.15 -34.54 -51.79 -36.72 -52.69 -38.32C-53.59 -39.92 -54.67 -41.03 -55.94 -41.65C-57.21 -42.26 -58.83 -42.57 -60.81 -42.57C-62.74 -42.57 -64.34 -42.25 -65.61 -41.62C-66.88 -40.98 -67.96 -39.86 -68.86 -38.26C-69.76 -36.66 -70.41 -34.48 -70.8 -31.73C-71.19 -28.97 -71.38 -25.48 -71.38 -21.24C-71.38 -17.67 -71.25 -14.63 -70.99 -12.14C-70.72 -9.65 -70.34 -7.58 -69.84 -5.93C-69.35 -4.28 -68.66 -3 -67.78 -2.08C-66.9 -1.16 -65.91 -0.52 -64.82 -0.15C-63.73 0.22 -62.39 0.41 -60.81 0.41ZM-60.81 -3.37C-62.33 -3.37 -63.49 -3.85 -64.29 -4.82C-65.09 -5.79 -65.69 -7.55 -66.08 -10.11C-66.47 -12.67 -66.67 -16.38 -66.67 -21.24C-66.67 -25.81 -66.48 -29.33 -66.12 -31.8C-65.76 -34.27 -65.17 -36.04 -64.34 -37.1C-63.51 -38.17 -62.32 -38.7 -60.78 -38.7C-59.21 -38.7 -58.02 -38.19 -57.2 -37.18C-56.38 -36.16 -55.79 -34.42 -55.43 -31.96C-55.07 -29.5 -54.89 -25.93 -54.89 -21.24C-54.89 -16.32 -55.08 -12.58 -55.47 -10.02C-55.86 -7.46 -56.46 -5.71 -57.28 -4.78C-58.09 -3.84 -59.26 -3.37 -60.81 -3.37Z M-24.95 0.47C-24.71 0.47 -24.51 0.31 -24.35 0C-24.18 -0.31 -24.1 -0.76 -24.1 -1.35L-24.1 -20.27C-24.1 -21.31 -24.35 -21.83 -24.86 -21.83L-32.71 -21.83C-32.98 -21.83 -33.19 -21.75 -33.33 -21.61C-33.46 -21.46 -33.53 -21.14 -33.53 -20.65L-33.53 -18.9C-33.53 -18.56 -33.49 -18.31 -33.4 -18.12C-33.31 -17.93 -33.21 -17.82 -33.11 -17.78C-33 -17.74 -32.85 -17.72 -32.65 -17.72L-28.55 -17.72C-28.37 -17.72 -28.29 -17.19 -28.29 -16.11C-28.29 -14.1 -28.35 -12.39 -28.48 -10.97C-28.6 -9.56 -28.84 -8.24 -29.19 -7.02C-29.55 -5.8 -30.05 -4.88 -30.72 -4.28C-31.38 -3.67 -32.22 -3.37 -33.24 -3.37C-34.04 -3.37 -34.76 -3.5 -35.39 -3.75C-36.03 -4 -36.66 -4.51 -37.28 -5.27C-37.91 -6.04 -38.42 -7.05 -38.83 -8.32C-39.24 -9.59 -39.58 -11.3 -39.83 -13.46C-40.08 -15.62 -40.21 -18.16 -40.21 -21.09C-40.21 -24.18 -40.04 -26.83 -39.71 -29.03C-39.38 -31.24 -38.96 -32.96 -38.45 -34.19C-37.94 -35.42 -37.28 -36.39 -36.46 -37.09C-35.64 -37.79 -34.85 -38.24 -34.1 -38.42C-33.35 -38.61 -32.44 -38.7 -31.36 -38.7C-30.97 -38.7 -30.55 -38.67 -30.09 -38.61C-29.63 -38.55 -29.21 -38.49 -28.83 -38.42C-28.45 -38.35 -28.1 -38.28 -27.77 -38.2C-27.45 -38.13 -27.18 -38.06 -26.97 -38L-26.67 -37.91C-26.54 -37.91 -26.47 -38.03 -26.47 -38.26L-26.47 -41.13C-26.47 -41.25 -26.49 -41.34 -26.53 -41.4C-26.57 -41.46 -26.62 -41.51 -26.69 -41.56C-26.76 -41.61 -26.8 -41.64 -26.82 -41.66C-28.31 -42.27 -29.92 -42.57 -31.66 -42.57C-32.73 -42.57 -33.66 -42.52 -34.44 -42.44C-35.22 -42.35 -36.1 -42.14 -37.09 -41.81C-38.08 -41.47 -38.92 -41.02 -39.61 -40.43C-40.3 -39.84 -41.01 -39.01 -41.72 -37.94C-42.43 -36.87 -43.01 -35.59 -43.45 -34.1C-43.89 -32.62 -44.24 -30.78 -44.52 -28.58C-44.79 -26.38 -44.93 -23.89 -44.93 -21.09C-44.93 -18.42 -44.81 -16.01 -44.58 -13.86C-44.34 -11.71 -44.03 -9.9 -43.65 -8.42C-43.27 -6.95 -42.79 -5.66 -42.2 -4.57C-41.62 -3.48 -41.02 -2.62 -40.4 -1.99C-39.79 -1.37 -39.08 -0.87 -38.28 -0.5C-37.48 -0.13 -36.72 0.12 -36.02 0.23C-35.32 0.35 -34.54 0.41 -33.68 0.41C-31.92 0.41 -30.47 -0.19 -29.33 -1.38C-28.18 -2.57 -27.45 -4.26 -27.11 -6.45C-27.08 -6.6 -27.02 -6.68 -26.94 -6.68C-26.88 -6.68 -26.85 -6.59 -26.85 -6.42C-26.85 -6.08 -26.75 -5.16 -26.54 -3.65C-26.34 -2.13 -26.24 -1.34 -26.24 -1.26C-26.02 -0.11 -25.59 0.47 -24.95 0.47Z M-17.77 0L-3.03 0C-2.78 0 -2.6 -0.06 -2.49 -0.19C-2.38 -0.32 -2.33 -0.61 -2.33 -1.05L-2.33 -2.7C-2.33 -3.03 -2.36 -3.27 -2.43 -3.43C-2.5 -3.58 -2.57 -3.68 -2.65 -3.71C-2.73 -3.74 -2.86 -3.75 -3.03 -3.75L-13.75 -3.75L-13.75 -18.78C-13.75 -18.92 -13.73 -19.08 -13.67 -19.26C-13.61 -19.45 -13.55 -19.54 -13.49 -19.54L-4.94 -19.54C-4.7 -19.54 -4.53 -19.62 -4.41 -19.79C-4.29 -19.96 -4.23 -20.27 -4.23 -20.74L-4.23 -22.35C-4.23 -22.8 -4.29 -23.11 -4.41 -23.26C-4.53 -23.42 -4.7 -23.5 -4.94 -23.5L-13.52 -23.5C-13.56 -23.5 -13.61 -23.57 -13.67 -23.72C-13.73 -23.86 -13.75 -24 -13.75 -24.14L-13.75 -37.47C-13.75 -38.08 -13.65 -38.38 -13.43 -38.38L-3.12 -38.38C-2.94 -38.38 -2.82 -38.39 -2.74 -38.42C-2.66 -38.45 -2.59 -38.54 -2.52 -38.7C-2.45 -38.86 -2.42 -39.1 -2.42 -39.43L-2.42 -41.07C-2.42 -41.39 -2.45 -41.63 -2.52 -41.79C-2.59 -41.96 -2.67 -42.06 -2.75 -42.08C-2.84 -42.11 -2.96 -42.13 -3.12 -42.13L-17.77 -42.13C-18 -42.13 -18.18 -42.06 -18.3 -41.91C-18.41 -41.76 -18.47 -41.46 -18.47 -40.99L-18.47 -1.14C-18.47 -0.79 -18.44 -0.53 -18.37 -0.37C-18.3 -0.2 -18.22 -0.1 -18.13 -0.06C-18.05 -0.02 -17.92 0 -17.77 0Z M7.16 0L10.47 0C10.73 0 10.91 -0.08 11.02 -0.25C11.12 -0.42 11.18 -0.79 11.18 -1.38L11.18 -37.53C11.18 -38.02 11.28 -38.26 11.5 -38.26L16.6 -38.26C16.77 -38.26 16.9 -38.28 16.98 -38.31C17.06 -38.33 17.13 -38.43 17.2 -38.58C17.27 -38.74 17.3 -38.97 17.3 -39.29L17.3 -40.93C17.3 -41.44 17.25 -41.76 17.14 -41.91C17.03 -42.06 16.85 -42.13 16.6 -42.13L1.01 -42.13C0.74 -42.13 0.55 -42.06 0.44 -41.91C0.33 -41.76 0.28 -41.44 0.28 -40.93L0.28 -39.29C0.28 -38.97 0.31 -38.74 0.38 -38.58C0.45 -38.43 0.52 -38.33 0.6 -38.31C0.68 -38.28 0.82 -38.26 1.01 -38.26L6.14 -38.26C6.35 -38.26 6.46 -38.02 6.46 -37.53L6.46 -1.38C6.46 -0.79 6.51 -0.42 6.62 -0.25C6.73 -0.08 6.91 0 7.16 0Z M22.05 0L25.3 0C25.55 0 25.74 -0.09 25.87 -0.26C26 -0.44 26.06 -0.81 26.06 -1.38L26.06 -19.48C26.06 -19.6 26.09 -19.72 26.15 -19.85C26.21 -19.98 26.25 -20.04 26.29 -20.04L36.64 -20.04C36.67 -20.04 36.73 -19.97 36.8 -19.83C36.87 -19.7 36.9 -19.57 36.9 -19.45L36.9 -1.38C36.9 -0.79 36.96 -0.42 37.09 -0.25C37.22 -0.08 37.42 0 37.69 0L40.94 0C41.2 0 41.38 -0.08 41.48 -0.25C41.59 -0.42 41.65 -0.79 41.65 -1.38L41.65 -40.75C41.65 -41.34 41.59 -41.71 41.48 -41.88C41.38 -42.05 41.2 -42.13 40.94 -42.13L37.69 -42.13C37.42 -42.13 37.22 -42.05 37.1 -41.88C36.99 -41.71 36.93 -41.34 36.93 -40.75L36.93 -24.49C36.93 -24.36 36.89 -24.21 36.81 -24.07C36.73 -23.92 36.67 -23.85 36.61 -23.85L26.26 -23.85C26.23 -23.85 26.18 -23.91 26.12 -24.04C26.06 -24.17 26.03 -24.3 26.03 -24.43L26.03 -40.75C26.03 -41.14 26 -41.45 25.93 -41.66C25.86 -41.88 25.78 -42.01 25.68 -42.06C25.58 -42.1 25.44 -42.13 25.27 -42.13L22.05 -42.13C21.79 -42.13 21.61 -42.05 21.49 -41.88C21.37 -41.71 21.31 -41.34 21.31 -40.75L21.31 -1.38C21.31 -0.79 21.37 -0.42 21.49 -0.25C21.61 -0.08 21.79 0 22.05 0Z M48.91 0L63.65 0C63.9 0 64.08 -0.06 64.19 -0.19C64.3 -0.32 64.35 -0.61 64.35 -1.05L64.35 -2.7C64.35 -3.03 64.32 -3.27 64.25 -3.43C64.18 -3.58 64.11 -3.68 64.03 -3.71C63.95 -3.74 63.82 -3.75 63.65 -3.75L52.92 -3.75L52.92 -18.78C52.92 -18.92 52.95 -19.08 53.01 -19.26C53.07 -19.45 53.13 -19.54 53.19 -19.54L61.74 -19.54C61.98 -19.54 62.15 -19.62 62.27 -19.79C62.39 -19.96 62.45 -20.27 62.45 -20.74L62.45 -22.35C62.45 -22.8 62.39 -23.11 62.27 -23.26C62.15 -23.42 61.98 -23.5 61.74 -23.5L53.16 -23.5C53.12 -23.5 53.07 -23.57 53.01 -23.72C52.95 -23.86 52.92 -24 52.92 -24.14L52.92 -37.47C52.92 -38.08 53.03 -38.38 53.25 -38.38L63.56 -38.38C63.74 -38.38 63.86 -38.39 63.94 -38.42C64.02 -38.45 64.09 -38.54 64.16 -38.7C64.23 -38.86 64.26 -39.1 64.26 -39.43L64.26 -41.07C64.26 -41.39 64.23 -41.63 64.16 -41.79C64.09 -41.96 64.01 -42.06 63.93 -42.08C63.84 -42.11 63.72 -42.13 63.56 -42.13L48.91 -42.13C48.68 -42.13 48.5 -42.06 48.38 -41.91C48.27 -41.76 48.21 -41.46 48.21 -40.99L48.21 -1.14C48.21 -0.79 48.24 -0.53 48.31 -0.37C48.38 -0.2 48.46 -0.1 48.54 -0.06C48.63 -0.02 48.75 0 48.91 0Z M74.4 -23.41C74.22 -23.41 74.14 -23.62 74.14 -24.05L74.14 -37.88C74.14 -38.21 74.22 -38.38 74.4 -38.38L77.89 -38.38C79.1 -38.38 80.1 -38.28 80.9 -38.07C81.7 -37.87 82.41 -37.5 83.03 -36.97C83.64 -36.45 84.09 -35.7 84.38 -34.73C84.66 -33.76 84.8 -32.55 84.8 -31.08C84.8 -28.45 84.32 -26.51 83.36 -25.27C82.41 -24.03 80.87 -23.41 78.76 -23.41ZM70.12 0L73.4 0C73.66 0 73.84 -0.08 73.96 -0.25C74.08 -0.42 74.14 -0.76 74.14 -1.29L74.14 -19.16C74.14 -19.53 74.23 -19.72 74.43 -19.72L79.73 -19.72C82.82 -19.72 84.43 -18.12 84.57 -14.91C84.66 -14.48 84.75 -12.17 84.81 -7.97C84.88 -3.77 84.93 -1.58 84.95 -1.41C84.95 -0.45 85.13 0.03 85.5 0.03C85.54 0.03 86.69 0.02 88.96 0C89.35 0 89.55 -0.51 89.55 -1.52C89.55 -7.91 89.53 -11.63 89.49 -12.69C89.45 -13.97 89.33 -15.11 89.12 -16.08C88.92 -17.06 88.69 -17.84 88.43 -18.41C88.18 -18.99 87.82 -19.51 87.36 -19.98C86.9 -20.45 86.5 -20.79 86.16 -20.99C85.82 -21.2 85.36 -21.44 84.77 -21.71C84.71 -21.71 84.68 -21.75 84.68 -21.83C84.68 -21.88 84.72 -21.95 84.8 -22.03C85.8 -22.44 86.62 -22.95 87.26 -23.57C87.91 -24.18 88.44 -25.14 88.87 -26.43C89.3 -27.71 89.52 -29.32 89.52 -31.23C89.52 -32.62 89.42 -33.86 89.22 -34.95C89.03 -36.04 88.77 -36.97 88.45 -37.73C88.13 -38.5 87.7 -39.15 87.17 -39.68C86.65 -40.22 86.11 -40.64 85.56 -40.96C85.01 -41.27 84.36 -41.52 83.58 -41.7C82.81 -41.89 82.09 -42.01 81.42 -42.06C80.74 -42.1 79.95 -42.13 79.03 -42.13L70.12 -42.13C69.97 -42.13 69.84 -42.1 69.76 -42.06C69.67 -42.01 69.59 -41.88 69.52 -41.67C69.45 -41.47 69.42 -41.17 69.42 -40.78L69.42 -1.29C69.42 -0.76 69.48 -0.42 69.59 -0.25C69.71 -0.08 69.89 0 70.12 0Z"></path></g></g></svg>